<svg xmlns="http://www.w3.org/2000/svg" xmlns:xlink="http://www.w3.org/1999/xlink" width="200" zoomAndPan="magnify" viewBox="0 0 150 30.000001" height="40" preserveAspectRatio="xMidYMid meet" version="1.0"><defs><g/><clipPath id="id1"><path d="M 2.417969 1.085938 L 33.628906 1.085938 L 33.628906 27.941406 L 2.417969 27.941406 Z M 2.417969 1.085938 " clip-rule="nonzero"/></clipPath><clipPath id="id2"><path d="M 31.644531 21.535156 C 32.929688 19.445312 33.628906 17.023438 33.628906 14.515625 C 33.628906 7.140625 27.636719 1.109375 20.316406 1.109375 L 2.417969 1.109375 L 5.246094 6.042969 L 19.445312 6.042969 C 26.339844 6.042969 31.976562 11.71875 31.976562 18.65625 C 31.976562 19.632812 31.863281 20.597656 31.644531 21.535156 Z M 17.03125 16.902344 L 17.03125 23.285156 L 20.363281 23.285156 L 20.726562 23.175781 C 22.714844 22.597656 24.117188 20.746094 24.117188 18.65625 C 24.117188 16.078125 22.007812 13.953125 19.445312 13.953125 L 9.785156 13.953125 L 7.171875 9.394531 L 19.445312 9.394531 C 24.503906 9.394531 28.644531 13.5625 28.644531 18.65625 C 28.644531 23.75 24.503906 27.921875 19.445312 27.921875 L 12.429688 27.921875 L 12.429688 16.902344 Z M 17.03125 16.902344 " clip-rule="evenodd"/></clipPath><linearGradient x1="118.135596" gradientTransform="matrix(0.133799, 0, 0, 0.13473, 2.419352, 1.108654)" y1="200.712998" x2="115.126337" gradientUnits="userSpaceOnUse" y2="-1.711575" id="id3"><stop stop-opacity="1" stop-color="rgb(13.299561%, 77.2995%, 36.898804%)" offset="0"/><stop stop-opacity="1" stop-color="rgb(13.299561%, 77.2995%, 36.898804%)" offset="0.0171267"/><stop stop-opacity="1" stop-color="rgb(13.299561%, 77.2995%, 36.898804%)" offset="0.0625"/><stop stop-opacity="1" stop-color="rgb(13.388062%, 77.284241%, 37.001038%)" offset="0.078125"/><stop stop-opacity="1" stop-color="rgb(13.648987%, 77.23999%, 37.298584%)" offset="0.09375"/><stop stop-opacity="1" stop-color="rgb(13.99231%, 77.182007%, 37.689209%)" offset="0.109375"/><stop stop-opacity="1" stop-color="rgb(14.335632%, 77.124023%, 38.079834%)" offset="0.125"/><stop stop-opacity="1" stop-color="rgb(14.678955%, 77.06604%, 38.470459%)" offset="0.140625"/><stop stop-opacity="1" stop-color="rgb(15.022278%, 77.006531%, 38.861084%)" offset="0.15625"/><stop stop-opacity="1" stop-color="rgb(15.365601%, 76.948547%, 39.251709%)" offset="0.171875"/><stop stop-opacity="1" stop-color="rgb(15.708923%, 76.890564%, 39.642334%)" offset="0.1875"/><stop stop-opacity="1" stop-color="rgb(16.052246%, 76.832581%, 40.032959%)" offset="0.203125"/><stop stop-opacity="1" stop-color="rgb(16.395569%, 76.774597%, 40.423584%)" offset="0.21875"/><stop stop-opacity="1" stop-color="rgb(16.738892%, 76.716614%, 40.814209%)" offset="0.234375"/><stop stop-opacity="1" stop-color="rgb(17.082214%, 76.65863%, 41.204834%)" offset="0.25"/><stop stop-opacity="1" stop-color="rgb(17.427063%, 76.600647%, 41.595459%)" offset="0.265625"/><stop stop-opacity="1" stop-color="rgb(17.770386%, 76.542664%, 41.986084%)" offset="0.28125"/><stop stop-opacity="1" stop-color="rgb(18.113708%, 76.48468%, 42.376709%)" offset="0.296875"/><stop stop-opacity="1" stop-color="rgb(18.457031%, 76.425171%, 42.767334%)" offset="0.3125"/><stop stop-opacity="1" stop-color="rgb(18.800354%, 76.367188%, 43.157959%)" offset="0.328125"/><stop stop-opacity="1" stop-color="rgb(19.143677%, 76.309204%, 43.548584%)" offset="0.34375"/><stop stop-opacity="1" stop-color="rgb(19.487%, 76.251221%, 43.939209%)" offset="0.359375"/><stop stop-opacity="1" stop-color="rgb(19.830322%, 76.193237%, 44.329834%)" offset="0.375"/><stop stop-opacity="1" stop-color="rgb(20.173645%, 76.135254%, 44.720459%)" offset="0.390625"/><stop stop-opacity="1" stop-color="rgb(20.516968%, 76.077271%, 45.111084%)" offset="0.40625"/><stop stop-opacity="1" stop-color="rgb(20.860291%, 76.019287%, 45.501709%)" offset="0.421875"/><stop stop-opacity="1" stop-color="rgb(21.203613%, 75.961304%, 45.892334%)" offset="0.4375"/><stop stop-opacity="1" stop-color="rgb(21.546936%, 75.90332%, 46.282959%)" offset="0.453125"/><stop stop-opacity="1" stop-color="rgb(21.890259%, 75.843811%, 46.673584%)" offset="0.46875"/><stop stop-opacity="1" stop-color="rgb(22.233582%, 75.785828%, 47.064209%)" offset="0.484375"/><stop stop-opacity="1" stop-color="rgb(22.576904%, 75.727844%, 47.454834%)" offset="0.5"/><stop stop-opacity="1" stop-color="rgb(22.920227%, 75.669861%, 47.845459%)" offset="0.515625"/><stop stop-opacity="1" stop-color="rgb(23.26355%, 75.611877%, 48.236084%)" offset="0.53125"/><stop stop-opacity="1" stop-color="rgb(23.606873%, 75.553894%, 48.626709%)" offset="0.546875"/><stop stop-opacity="1" stop-color="rgb(23.950195%, 75.495911%, 49.017334%)" offset="0.5625"/><stop stop-opacity="1" stop-color="rgb(24.293518%, 75.437927%, 49.407959%)" offset="0.578125"/><stop stop-opacity="1" stop-color="rgb(24.636841%, 75.379944%, 49.798584%)" offset="0.59375"/><stop stop-opacity="1" stop-color="rgb(24.980164%, 75.32196%, 50.189209%)" offset="0.609375"/><stop stop-opacity="1" stop-color="rgb(25.323486%, 75.262451%, 50.579834%)" offset="0.625"/><stop stop-opacity="1" stop-color="rgb(25.666809%, 75.204468%, 50.970459%)" offset="0.640625"/><stop stop-opacity="1" stop-color="rgb(26.010132%, 75.146484%, 51.361084%)" offset="0.65625"/><stop stop-opacity="1" stop-color="rgb(26.35498%, 75.088501%, 51.751709%)" offset="0.671875"/><stop stop-opacity="1" stop-color="rgb(26.698303%, 75.030518%, 52.142334%)" offset="0.6875"/><stop stop-opacity="1" stop-color="rgb(27.041626%, 74.972534%, 52.532959%)" offset="0.703125"/><stop stop-opacity="1" stop-color="rgb(27.384949%, 74.914551%, 52.923584%)" offset="0.71875"/><stop stop-opacity="1" stop-color="rgb(27.728271%, 74.856567%, 53.314209%)" offset="0.734375"/><stop stop-opacity="1" stop-color="rgb(28.071594%, 74.798584%, 53.704834%)" offset="0.75"/><stop stop-opacity="1" stop-color="rgb(28.414917%, 74.739075%, 54.095459%)" offset="0.765625"/><stop stop-opacity="1" stop-color="rgb(28.75824%, 74.681091%, 54.486084%)" offset="0.78125"/><stop stop-opacity="1" stop-color="rgb(29.101562%, 74.623108%, 54.876709%)" offset="0.796875"/><stop stop-opacity="1" stop-color="rgb(29.444885%, 74.565125%, 55.267334%)" offset="0.8125"/><stop stop-opacity="1" stop-color="rgb(29.788208%, 74.507141%, 55.657959%)" offset="0.828125"/><stop stop-opacity="1" stop-color="rgb(30.131531%, 74.449158%, 56.047058%)" offset="0.84375"/><stop stop-opacity="1" stop-color="rgb(30.474854%, 74.391174%, 56.437683%)" offset="0.859375"/><stop stop-opacity="1" stop-color="rgb(30.818176%, 74.333191%, 56.828308%)" offset="0.875"/><stop stop-opacity="1" stop-color="rgb(31.161499%, 74.275208%, 57.218933%)" offset="0.890625"/><stop stop-opacity="1" stop-color="rgb(31.504822%, 74.217224%, 57.609558%)" offset="0.90625"/><stop stop-opacity="1" stop-color="rgb(31.848145%, 74.157715%, 58.000183%)" offset="0.921875"/><stop stop-opacity="1" stop-color="rgb(32.10907%, 74.113464%, 58.297729%)" offset="0.9375"/><stop stop-opacity="1" stop-color="rgb(32.199097%, 74.099731%, 58.399963%)" offset="0.982873"/><stop stop-opacity="1" stop-color="rgb(32.199097%, 74.099731%, 58.399963%)" offset="1"/></linearGradient></defs><g clip-path="url(#id1)"><g clip-path="url(#id2)"><path fill="url(#id3)" d="M 2.417969 1.109375 L 2.417969 27.921875 L 33.628906 27.921875 L 33.628906 1.109375 Z M 2.417969 1.109375 " fill-rule="nonzero"/></g></g><g fill="rgb(13.328552%, 77.249146%, 36.859131%)" fill-opacity="1"><g transform="translate(35.538507, 26.726518)"><g><path d="M 5.375 -16.171875 L 5.375 0 L 1.421875 0 L 1.421875 -16.171875 Z M 5.375 -16.171875 "/></g></g></g><g fill="rgb(13.328552%, 77.249146%, 36.859131%)" fill-opacity="1"><g transform="translate(45.357107, 26.726518)"><g><path d="M 9.078125 0.15625 C 7.554688 0.15625 6.160156 -0.191406 4.890625 -0.890625 C 3.628906 -1.597656 2.625 -2.585938 1.875 -3.859375 C 1.132812 -5.128906 0.765625 -6.554688 0.765625 -8.140625 C 0.765625 -9.722656 1.132812 -11.144531 1.875 -12.40625 C 2.625 -13.664062 3.628906 -14.644531 4.890625 -15.34375 C 6.160156 -16.050781 7.554688 -16.40625 9.078125 -16.40625 C 10.597656 -16.40625 11.992188 -16.050781 13.265625 -15.34375 C 14.535156 -14.644531 15.535156 -13.664062 16.265625 -12.40625 C 16.992188 -11.144531 17.359375 -9.722656 17.359375 -8.140625 C 17.359375 -6.554688 16.988281 -5.128906 16.25 -3.859375 C 15.507812 -2.585938 14.507812 -1.597656 13.25 -0.890625 C 11.988281 -0.191406 10.597656 0.15625 9.078125 0.15625 Z M 9.078125 -3.4375 C 10.367188 -3.4375 11.398438 -3.863281 12.171875 -4.71875 C 12.953125 -5.582031 13.34375 -6.722656 13.34375 -8.140625 C 13.34375 -9.566406 12.953125 -10.707031 12.171875 -11.5625 C 11.398438 -12.414062 10.367188 -12.84375 9.078125 -12.84375 C 7.773438 -12.84375 6.734375 -12.414062 5.953125 -11.5625 C 5.179688 -10.71875 4.796875 -9.578125 4.796875 -8.140625 C 4.796875 -6.710938 5.179688 -5.570312 5.953125 -4.71875 C 6.734375 -3.863281 7.773438 -3.4375 9.078125 -3.4375 Z M 9.078125 -3.4375 "/></g></g></g><g fill="rgb(13.328552%, 77.249146%, 36.859131%)" fill-opacity="1"><g transform="translate(66.490473, 26.726518)"><g><path d="M 13.765625 -10.96875 C 13.765625 -10.03125 13.546875 -9.171875 13.109375 -8.390625 C 12.679688 -7.617188 12.019531 -6.992188 11.125 -6.515625 C 10.238281 -6.046875 9.132812 -5.8125 7.8125 -5.8125 L 5.375 -5.8125 L 5.375 0 L 1.421875 0 L 1.421875 -16.171875 L 7.8125 -16.171875 C 9.101562 -16.171875 10.191406 -15.945312 11.078125 -15.5 C 11.972656 -15.0625 12.644531 -14.445312 13.09375 -13.65625 C 13.539062 -12.875 13.765625 -11.976562 13.765625 -10.96875 Z M 7.515625 -8.9375 C 8.265625 -8.9375 8.820312 -9.113281 9.1875 -9.46875 C 9.5625 -9.820312 9.75 -10.320312 9.75 -10.96875 C 9.75 -11.613281 9.5625 -12.113281 9.1875 -12.46875 C 8.820312 -12.820312 8.265625 -13 7.515625 -13 L 5.375 -13 L 5.375 -8.9375 Z M 7.515625 -8.9375 "/></g></g></g><g fill="rgb(13.328552%, 77.249146%, 36.859131%)" fill-opacity="1"><g transform="translate(83.89066, 26.726518)"><g><path d="M 7.28125 0.15625 C 6.101562 0.15625 5.046875 -0.03125 4.109375 -0.40625 C 3.171875 -0.789062 2.421875 -1.359375 1.859375 -2.109375 C 1.296875 -2.867188 1 -3.78125 0.96875 -4.84375 L 5.15625 -4.84375 C 5.21875 -4.238281 5.425781 -3.78125 5.78125 -3.46875 C 6.132812 -3.15625 6.597656 -3 7.171875 -3 C 7.753906 -3 8.210938 -3.128906 8.546875 -3.390625 C 8.890625 -3.660156 9.0625 -4.035156 9.0625 -4.515625 C 9.0625 -4.910156 8.925781 -5.238281 8.65625 -5.5 C 8.382812 -5.769531 8.050781 -5.988281 7.65625 -6.15625 C 7.269531 -6.320312 6.71875 -6.515625 6 -6.734375 C 4.945312 -7.054688 4.085938 -7.378906 3.421875 -7.703125 C 2.765625 -8.023438 2.195312 -8.5 1.71875 -9.125 C 1.25 -9.757812 1.015625 -10.582031 1.015625 -11.59375 C 1.015625 -13.09375 1.554688 -14.269531 2.640625 -15.125 C 3.734375 -15.976562 5.160156 -16.40625 6.921875 -16.40625 C 8.703125 -16.40625 10.132812 -15.976562 11.21875 -15.125 C 12.3125 -14.269531 12.894531 -13.082031 12.96875 -11.5625 L 8.71875 -11.5625 C 8.6875 -12.09375 8.492188 -12.503906 8.140625 -12.796875 C 7.785156 -13.097656 7.332031 -13.25 6.78125 -13.25 C 6.300781 -13.25 5.914062 -13.117188 5.625 -12.859375 C 5.332031 -12.609375 5.1875 -12.25 5.1875 -11.78125 C 5.1875 -11.257812 5.429688 -10.851562 5.921875 -10.5625 C 6.410156 -10.269531 7.179688 -9.953125 8.234375 -9.609375 C 9.273438 -9.253906 10.117188 -8.914062 10.765625 -8.59375 C 11.421875 -8.269531 11.988281 -7.800781 12.46875 -7.1875 C 12.945312 -6.570312 13.1875 -5.78125 13.1875 -4.8125 C 13.1875 -3.894531 12.953125 -3.054688 12.484375 -2.296875 C 12.015625 -1.546875 11.332031 -0.945312 10.4375 -0.5 C 9.550781 -0.0625 8.5 0.15625 7.28125 0.15625 Z M 7.28125 0.15625 "/></g></g></g><g fill="rgb(13.328552%, 77.249146%, 36.859131%)" fill-opacity="1"><g transform="translate(101.083444, 26.726518)"><g><path d="M 5.375 -16.171875 L 5.375 0 L 1.421875 0 L 1.421875 -16.171875 Z M 5.375 -16.171875 "/></g></g></g><g fill="rgb(13.328552%, 77.249146%, 36.859131%)" fill-opacity="1"><g transform="translate(110.902043, 26.726518)"><g><path d="M 7.484375 -16.171875 C 9.191406 -16.171875 10.679688 -15.832031 11.953125 -15.15625 C 13.234375 -14.488281 14.222656 -13.539062 14.921875 -12.3125 C 15.617188 -11.09375 15.96875 -9.6875 15.96875 -8.09375 C 15.96875 -6.507812 15.617188 -5.101562 14.921875 -3.875 C 14.222656 -2.644531 13.234375 -1.691406 11.953125 -1.015625 C 10.671875 -0.335938 9.179688 0 7.484375 0 L 1.421875 0 L 1.421875 -16.171875 Z M 7.234375 -3.40625 C 8.722656 -3.40625 9.882812 -3.8125 10.71875 -4.625 C 11.550781 -5.445312 11.96875 -6.601562 11.96875 -8.09375 C 11.96875 -9.582031 11.550781 -10.738281 10.71875 -11.5625 C 9.882812 -12.394531 8.722656 -12.8125 7.234375 -12.8125 L 5.375 -12.8125 L 5.375 -3.40625 Z M 7.234375 -3.40625 "/></g></g></g><g fill="rgb(13.328552%, 77.249146%, 36.859131%)" fill-opacity="1"><g transform="translate(130.6758, 26.726518)"><g><path d="M 5.375 -13.015625 L 5.375 -9.75 L 10.640625 -9.75 L 10.640625 -6.703125 L 5.375 -6.703125 L 5.375 -3.15625 L 11.34375 -3.15625 L 11.34375 0 L 1.421875 0 L 1.421875 -16.171875 L 11.34375 -16.171875 L 11.34375 -13.015625 Z M 5.375 -13.015625 "/></g></g></g></svg>